# xmcd CD database file
#
# Track frame offsets:
#	150
#	9469
#	30476
#	66790
#	84276
#
# Disc length: 1527 seconds
#
# Revision: 1
# Processed by: cddbd v1.5.2PL0 Copyright (c) Steve Scherf et al.
# Submitted via: CDex 1.51
#
DISCID=2d05f505
DTITLE=Naranjito Blues - Naranjito Blues
DYEAR=2008
DGENRE=Blues
TTITLE0=Everyday we have the blues
TTITLE1=Coca-Cola
TTITLE2=Skeleton Crew
TTITLE3=Chicago
TTITLE4=The thrill is gone (en vivo)
EXTD=YEAR: 2008
EXTT0=
EXTT1=
EXTT2=
EXTT3=
EXTT4=
PLAYORDER=
